# xmcd CD database file
#
# Track frame offsets:
#	150
#	13848
#	24809
#	35780
#	47756
#	57844
#	69338
#	80787
#	89823
#	106041
#	133109
#	149738
#	161383
#	172301
#	185180
#	197297
#	211311
#	223911
#	235612
#	246264
#	257498
#	267648
#	278662
#	290112
#	300872
#
# Disc length: 4163 seconds
#
# Revision: 0
# Processed by: cddbd v1.5.2PL0 Copyright (c) Steve Scherf et al.
# Submitted via: CDex 1.70beta2
#
DISCID=7d104119
DTITLE=Etta James - The Anthology - Disc 1
DYEAR=2013
DGENRE=Jazz
TTITLE0=At Last
TTITLE1=Dream
TTITLE2=Don't Cry Baby
TTITLE3=Would It Make Any Difference To You
TTITLE4=Guess Again
TTITLE5=Then I'll Care
TTITLE6=My Dear
TTITLE7=Fools Rush In
TTITLE8=Don't Take Your Love From Me
TTITLE9=Someone To Watch Over Me
TTITLE10=Again
TTITLE11=Street Of Tears
TTITLE12=Number One (My One And Only)
TTITLE13=Stop The Wedding
TTITLE14=How Big A Fool
TTITLE15=Let Me Know
TTITLE16=Next Door To The Blues
TTITLE17=My Heart Cries
TTITLE18=The Pick-Up
TTITLE19=Tears Of Joy
TTITLE20=That's All
TTITLE21=Sunshine Of Love
TTITLE22=Shortnin' Bread Rock
TTITLE23=Nobody But You
TTITLE24=I'm A Fool
EXTD=YEAR: 2013
EXTT0=
EXTT1=
EXTT2=
EXTT3=
EXTT4=
EXTT5=
EXTT6=
EXTT7=
EXTT8=
EXTT9=
EXTT10=
EXTT11=
EXTT12=
EXTT13=
EXTT14=
EXTT15=
EXTT16=
EXTT17=
EXTT18=
EXTT19=
EXTT20=
EXTT21=
EXTT22=
EXTT23=
EXTT24=
PLAYORDER=
